<svg xmlns="http://www.w3.org/2000/svg" viewBox="0 0 360 360">
  <defs>
    <linearGradient id="bg" x1="0" y1="0" x2="0" y2="1">
      <stop offset="0%" stop-color="#f8fbff" />
      <stop offset="100%" stop-color="#eef4fb" />
    </linearGradient>
  </defs>
  <rect width="360" height="360" rx="38" fill="url(#bg)" />
  <circle cx="180" cy="170" r="100" fill="#fff" stroke="#0f4c82" stroke-width="8" />
  <ellipse cx="120" cy="120" rx="32" ry="40" fill="#252525" />
  <ellipse cx="240" cy="120" rx="32" ry="40" fill="#252525" />
  <circle cx="115" cy="135" r="11" fill="#fff" />
  <circle cx="235" cy="135" r="11" fill="#fff" />
  <path d="M150 185c10 18 40 18 50 0" stroke="#252525" stroke-width="8" fill="none" stroke-linecap="round" />
  <path d="M140 230c20 22 60 22 80 0" stroke="#0f4c82" stroke-width="10" fill="none" stroke-linecap="round" />
  <path d="M140 105q40 -30 80 0" stroke="#252525" stroke-width="12" fill="none" stroke-linecap="round" />
  <circle cx="150" cy="95" r="19" fill="#252525" />
  <circle cx="210" cy="95" r="19" fill="#252525" />
  <ellipse cx="160" cy="225" rx="38" ry="20" fill="#e8f1ff" />
  <ellipse cx="200" cy="225" rx="38" ry="20" fill="#e8f1ff" />
</svg>
